PathFileType	4	(X/Y/Z)	/Users/itak/Documents/Research/Walk-IL/dataset/trc/00032_00004.trc
DataRate	CameraRate	NumFrames	NumMarkers	Units	OrigDataRate	OrigDataStartFrame	OrigNumFrames
100.000000	100.000000	4	53	mm	100.000000	193	774
Frame#	Time	RPSI			LPSI			L3			STRN			T10			C7			CLAV			RBAK			LBAK			LSHO			LUPA			LAEL			LAOL			LWTS			LWPS			LFRA			LIFD			LHPS			LHTS			RSHO			RUPA			RAEL			RAOL			RWTS			RWPS			RFRA			RIFD			RHTS			RHPS			RBHD			LFHD			RFHD			LBHD			LHIP			RHIP			RASI			LASI			LKNE			LTHI			LANK			LTIP			LTOE			LMT1			LMT5			LHEE			RKNE			RTHI			RANK			RTIP			RTOE			RMT1			RMT5			RHEE			
		X1	Y1	Z1	X2	Y2	Z2	X3	Y3	Z3	X4	Y4	Z4	X5	Y5	Z5	X6	Y6	Z6	X7	Y7	Z7	X8	Y8	Z8	X9	Y9	Z9	X10	Y10	Z10	X11	Y11	Z11	X12	Y12	Z12	X13	Y13	Z13	X14	Y14	Z14	X15	Y15	Z15	X16	Y16	Z16	X17	Y17	Z17	X18	Y18	Z18	X19	Y19	Z19	X20	Y20	Z20	X21	Y21	Z21	X22	Y22	Z22	X23	Y23	Z23	X24	Y24	Z24	X25	Y25	Z25	X26	Y26	Z26	X27	Y27	Z27	X28	Y28	Z28	X29	Y29	Z29	X30	Y30	Z30	X31	Y31	Z31	X32	Y32	Z32	X33	Y33	Z33	X34	Y34	Z34	X35	Y35	Z35	X36	Y36	Z36	X37	Y37	Z37	X38	Y38	Z38	X39	Y39	Z39	X40	Y40	Z40	X41	Y41	Z41	X42	Y42	Z42	X43	Y43	Z43	X44	Y44	Z44	X45	Y45	Z45	X46	Y46	Z46	X47	Y47	Z47	X48	Y48	Z48	X49	Y49	Z49	X50	Y50	Z50	X51	Y51	Z51	X52	Y52	Z52	X53	Y53	Z53	

194	1.93	-139.6983947753906	1054.535278320312	697.4571533203125	-240.654541015625	1060.158447265625	825.5465698242188	-188.8954162597656	1119.258178710938	766.3758544921875	-354.1295166015625	1296.164306640625	598.4712524414062	-169.5728759765625	1264.358642578125	769.7691040039062	-210.6111297607422	1528.191284179688	714.0308227539062	-323.30859375	1424.091552734375	615.1402587890625	-118.8329238891602	1387.973022460938	707.8001708984375	-262.5815124511719	1499.37548828125	801.9835815429688	-386.1918640136719	1504.438354492188	787.1278076171875	-411.4802551269531	1396.584106445312	886.887451171875	-421.4239501953125	1189.545654296875	952.918701171875	-320.4291076660156	1178.271850585938	927.3024291992188	-434.4654541015625	920.9192504882812	901.1734008789062	-412.5197143554688	924.2033081054688	987.8713989257812	-430.4645080566406	1074.561157226562	971.614990234375	-429.4897155761719	732.8492431640625	905.48828125	-429.9738159179688	829.8377075195312	980.1669311523438	-452.5973205566406	826.2136840820312	913.5009155273438	-147.1895446777344	1490.512573242188	538.5618896484375	-87.77500915527344	1417.008544921875	505.3751831054688	-40.82489776611328	1151.193969726562	542.531494140625	-107.6864852905273	1131.595092773438	614.3311157226562	-179.8798980712891	901.387451171875	484.4942626953125	-91.20113372802734	874.97802734375	487.993896484375	-43.84090423583984	1072.1953125	528.3878173828125	-229.4335174560547	721.43603515625	489.5074462890625	-207.9598083496094	794.6769409179688	455.796630859375	-134.9324493408203	777.8001708984375	463.9796752929688	-332.3522644042969	1707.391357421875	670.5415649414062	-266.4077453613281	1680.34912109375	463.8559875488281	-360.1374816894531	1689.27685546875	491.3262329101562	-197.3393096923828	1691.519653320312	623.9033813476562	-389.9445495605469	960.7113037109375	856.421875	-169.5987854003906	925.2188720703125	561.653076171875	-293.0066833496094	964.0648803710938	548.143798828125	-434.5552673339844	1001.955444335938	730.9220581054688	-501.517333984375	518.5578002929688	761.5853881835938	-475.2496948242188	659.1002197265625	814.2348022460938	-300.0414123535156	161.4545440673828	1065.849487304688	-402.0462646484375	352.4827575683594	934.399169921875	-422.9686889648438	47.83213043212891	919.9664306640625	-369.9269104003906	74.89809417724609	931.2915649414062	-402.3504943847656	104.0448837280273	1028.513916015625	-219.7902526855469	190.6712951660156	1055.646118164062	-285.7530822753906	500.5135192871094	611.6453247070312	-210.4013366699219	759.2151489257812	556.9508666992188	-283.640869140625	43.770751953125	809.7849731445312	-289.1246032714844	375.9082946777344	652.7567138671875	-459.6646118164062	42.35137939453125	652.2645874023438	-443.9457397460938	49.69384765625	718.7612915039062	-355.4425354003906	42.20052719116211	678.7427978515625	-285.2457275390625	50.3487434387207	879.900390625	
195	1.94	-144.3889923095703	1054.61083984375	693.6530151367188	-248.2810974121094	1060.287963867188	819.2763671875	-195.1169891357422	1119.24560546875	761.2991333007812	-357.0436706542969	1296.657348632812	590.8338012695312	-175.5059509277344	1264.432250976562	765.2996826171875	-215.6509704589844	1528.4736328125	709.4769287109375	-326.5614318847656	1424.574096679688	608.4243774414062	-123.6545181274414	1388.229858398438	704.5182495117188	-268.9918823242188	1499.206298828125	796.3995361328125	-392.3119506835938	1504.418579101562	779.6077270507812	-419.1565246582031	1396.290649414062	878.6664428710938	-430.0232849121094	1189.103515625	944.0239868164062	-328.8633728027344	1177.809204101562	919.7697143554688	-442.646484375	920.6426391601562	891.4390258789062	-421.6009216308594	923.6657104492188	978.4791259765625	-439.3829040527344	1074.083374023438	962.3060913085938	-437.7357177734375	732.5745239257812	895.234130859375	-438.8939208984375	829.303955078125	970.3360595703125	-460.8214111328125	825.8810424804688	903.3751220703125	-149.1295471191406	1491.173461914062	535.0631103515625	-89.13414764404297	1417.759399414062	502.6820373535156	-42.96818542480469	1151.784301757812	540.1661376953125	-110.8876876831055	1132.243774414062	610.9535522460938	-181.8915863037109	902.4522094726562	479.7286071777344	-93.38565826416016	875.790771484375	484.1573181152344	-45.93889999389648	1072.769165039062	525.7932739257812	-231.9289093017578	722.646728515625	483.865966796875	-209.9866638183594	795.8939208984375	450.4841918945312	-137.0851440429688	778.7881469726562	459.41455078125	-336.48583984375	1707.955322265625	664.0353393554688	-267.4528198242188	1680.689697265625	458.3953552246094	-361.62451171875	1689.641967773438	484.435302734375	-200.8041076660156	1692.018676757812	619.4589233398438	-398.6871643066406	961.2334594726562	846.332275390625	-171.0914459228516	924.9010620117188	557.4232788085938	-294.0857849121094	964.142822265625	540.7962036132812	-440.0032958984375	1002.549194335938	719.947509765625	-510.0642395019531	520.7216186523438	744.7748413085938	-484.8256530761719	660.315673828125	799.5859985351562	-329.166748046875	152.0955505371094	1047.609252929688	-420.9028625488281	349.2567749023438	917.5003662109375	-451.8380432128906	47.3775634765625	895.0507202148438	-398.1271667480469	71.91262817382812	908.7125854492188	-432.4952087402344	99.96323394775391	1005.5830078125	-247.6291351318359	178.4919128417969	1040.716674804688	-286.3580017089844	499.7276306152344	609.7664794921875	-211.7862091064453	758.53955078125	553.4036254882812	-283.7175903320312	44.02218246459961	809.8030395507812	-289.6166076660156	375.5623474121094	651.6122436523438	-459.7177429199219	42.32765960693359	652.2791137695312	-443.9720153808594	49.69660568237305	718.7279663085938	-355.4495544433594	42.19379425048828	678.7318725585938	-285.3325500488281	50.68747329711914	879.9098510742188	
196	1.95	-148.9716644287109	1054.59228515625	690.0188598632812	-255.9885559082031	1060.358642578125	813.0003051757812	-201.3828125	1119.129760742188	756.2975463867188	-359.8177490234375	1297.007446289062	583.1838989257812	-181.4725036621094	1264.421264648438	760.882080078125	-220.7743682861328	1528.640380859375	704.88623046875	-329.75439453125	1424.922119140625	601.6782836914062	-128.5106658935547	1388.3857421875	701.2862548828125	-275.4187316894531	1498.937255859375	790.7589111328125	-398.4429931640625	1504.275146484375	771.9607543945312	-426.834228515625	1395.884521484375	870.3114013671875	-438.5997619628906	1188.562744140625	935.00341796875	-337.2345581054688	1177.26806640625	912.1484985351562	-450.7763977050781	920.2621459960938	881.6510009765625	-430.5822448730469	923.0252685546875	968.9752807617188	-448.2648315429688	1073.506713867188	952.8815307617188	-445.8950500488281	732.196533203125	884.91259765625	-447.7123107910156	828.668701171875	960.4035034179688	-469.0135498046875	825.4563598632812	893.1708374023438	-151.0543975830078	1491.708984375	531.6307373046875	-90.46035766601562	1418.402099609375	500.0992431640625	-45.00617218017578	1152.276245117188	537.9249877929688	-113.997200012207	1132.783081054688	607.6790161132812	-183.752197265625	903.423828125	475.04443359375	-95.42424774169922	876.5130615234375	480.3919677734375	-47.91948699951172	1073.239013671875	523.313720703125	-234.2910461425781	723.7683715820312	478.2614135742188	-211.8509979248047	797.0194091796875	445.2533874511719	-139.0824584960938	779.6810913085938	454.9075927734375	-340.5665588378906	1708.390014648438	657.5203857421875	-268.4682006835938	1680.922119140625	452.9612731933594	-363.0553894042969	1689.908447265625	477.5694274902344	-204.2621612548828	1692.370849609375	615.0144653320312	-407.3482666015625	961.6362915039062	836.1092529296875	-172.4441833496094	924.5274658203125	553.3785400390625	-294.9379272460938	964.1058349609375	533.52392578125	-445.2450561523438	1003.000610351562	708.857666015625	-518.2684936523438	522.8197021484375	728.0628662109375	-494.0735168457031	661.4689331054688	785.0023803710938	-358.1604919433594	142.81787109375	1028.094116210938	-439.5639953613281	345.9410400390625	900.0542602539062	-479.2888793945312	47.12162780761719	868.49462890625	-425.2061462402344	69.21406555175781	884.6578369140625	-461.8661499023438	95.79540252685547	981.0578002929688	-275.6412048339844	166.5816345214844	1024.688232421875	-286.9082336425781	498.9143676757812	607.8998413085938	-212.981201171875	757.819091796875	549.9512939453125	-283.8119201660156	44.29010772705078	809.8390502929688	-290.0963439941406	375.2070007324219	650.4898681640625	-459.7691955566406	42.30291366577148	652.2852783203125	-444.0075378417969	49.69626235961914	718.6919555664062	-355.4619750976562	42.18708038330078	678.720458984375	-285.4735717773438	51.06230545043945	879.9614868164062	
197	1.96	-153.5059051513672	1054.473876953125	686.5114135742188	-263.7682189941406	1060.361083984375	806.7113037109375	-207.6886444091797	1118.909912109375	751.3615112304688	-362.4638671875	1297.212280273438	575.5137939453125	-187.5178985595703	1264.318237304688	756.4912719726562	-225.9771728515625	1528.682983398438	700.2501220703125	-332.8889465332031	1425.12939453125	594.896728515625	-133.4160766601562	1388.433837890625	698.0939331054688	-281.8607788085938	1498.574951171875	785.0567626953125	-404.5906066894531	1504.003784179688	764.1741333007812	-434.5205688476562	1395.361083984375	861.8077392578125	-447.15966796875	1187.916625976562	925.850341796875	-345.4945373535156	1176.657348632812	904.460205078125	-458.8462829589844	919.7724609375	871.8026123046875	-439.4620361328125	922.276611328125	959.35888671875	-457.1052856445312	1072.825927734375	943.342529296875	-453.9686279296875	731.7092895507812	874.5130004882812	-456.4415588378906	827.9324951171875	950.354248046875	-477.1578369140625	824.9329833984375	882.8837890625	-152.9709014892578	1492.11181640625	528.257080078125	-91.76387786865234	1418.92919921875	497.6283569335938	-46.95069122314453	1152.658935546875	535.8096923828125	-117.0019760131836	1133.1923828125	604.4928588867188	-185.46630859375	904.2952270507812	470.4290466308594	-97.31941986083984	877.1348266601562	476.6997375488281	-49.79607772827148	1073.595458984375	520.94921875	-236.5411987304688	724.7943115234375	472.652587890625	-213.5526580810547	798.04541015625	440.0780334472656	-140.9234161376953	780.47216796875	450.4465026855469	-344.6021728515625	1708.690307617188	650.9837646484375	-269.462890625	1681.0390625	447.5440063476562	-364.4332885742188	1690.0703125	470.7200317382812	-207.7185821533203	1692.573364257812	610.5604248046875	-415.905517578125	961.9041748046875	825.7614135742188	-173.6766967773438	924.1051635742188	549.4970092773438	-295.5828857421875	963.9535522460938	526.3351440429688	-450.2615051269531	1003.298889160156	697.680908203125	-526.1734008789062	524.8343505859375	711.4205932617188	-503.0346984863281	662.55029296875	770.4932861328125	-386.908203125	133.7942199707031	1007.301330566406	-458.0024719238281	342.6056823730469	882.0223388671875	-505.1046752929688	47.0456428527832	840.4281616210938	-450.96533203125	66.83484649658203	859.234619140625	-490.2940673828125	91.60304260253906	954.991455078125	-303.67822265625	155.1377105712891	1007.568786621094	-287.3892822265625	498.0807189941406	606.0576171875	-213.9990844726562	757.0565185546875	546.5870361328125	-283.921875	44.56988143920898	809.8952026367188	-290.5632934570312	374.8417053222656	649.396240234375	-459.8202514648438	42.27530670166016	652.2830200195312	-444.0534973144531	49.69174194335938	718.6546630859375	-355.4807739257812	42.18104553222656	678.709228515625	-285.6633605957031	51.47077178955078	880.0556640625	
